<?xml version="1.0" encoding="UTF-8" standalone="no"?>
<!-- Created with Inkscape (http://www.inkscape.org/) -->

<svg
   width="210mm"
   height="297mm"
   viewBox="0 0 210 297"
   version="1.1"
   id="svg5"
   xml:space="preserve"
   inkscape:version="1.2.2 (732a01da63, 2022-12-09)"
   sodipodi:docname="logo-name-v1.svg"
   xmlns:inkscape="http://www.inkscape.org/namespaces/inkscape"
   xmlns:sodipodi="http://sodipodi.sourceforge.net/DTD/sodipodi-0.dtd"
   xmlns="http://www.w3.org/2000/svg"
   xmlns:svg="http://www.w3.org/2000/svg"><sodipodi:namedview
     id="namedview7"
     pagecolor="#ffffff"
     bordercolor="#000000"
     borderopacity="0.25"
     inkscape:showpageshadow="2"
     inkscape:pageopacity="0.0"
     inkscape:pagecheckerboard="0"
     inkscape:deskcolor="#d1d1d1"
     inkscape:document-units="mm"
     showgrid="false"
     inkscape:zoom="1.418164"
     inkscape:cx="371.60723"
     inkscape:cy="505.2307"
     inkscape:window-width="2400"
     inkscape:window-height="1271"
     inkscape:window-x="2391"
     inkscape:window-y="-9"
     inkscape:window-maximized="1"
     inkscape:current-layer="layer1"
     showborder="false"
     showguides="false"><inkscape:grid
       type="xygrid"
       id="grid23253" /></sodipodi:namedview><defs
     id="defs2"><rect
       x="-2025.3424"
       y="634.22833"
       width="486.64061"
       height="616.27848"
       id="rect9048" /><rect
       x="-2058.2504"
       y="628.24505"
       width="362.98603"
       height="557.44283"
       id="rect9042" /><rect
       x="-1116.8801"
       y="87.754864"
       width="510.57375"
       height="243.3203"
       id="rect9036" /><rect
       x="-1575.5987"
       y="51.855147"
       width="1088.9581"
       height="1053.0584"
       id="rect9030" /><rect
       x="-1264.4678"
       y="1196.6572"
       width="1651.387"
       height="1224.5792"
       id="rect9024" /></defs><g
     inkscape:label="Layer 1"
     inkscape:groupmode="layer"
     id="layer1"><ellipse
       style="opacity:1;fill:#000000;fill-opacity:1;stroke:#030303;stroke-width:0.125073;stroke-dasharray:none;stroke-opacity:1"
       id="path20857"
       cx="107.43232"
       cy="141.21629"
       rx="71.342369"
       ry="75.072105" /><path
       style="opacity:0.312236;fill:#000000;stroke-width:0.264583"
       d="m -341.0454,47.761281 176.866,-1.865675"
       id="path1624" /><path
       style="opacity:0.312236;fill:#000000;stroke-width:0.264583"
       d="m -273.88111,-8.2089703 28.73141,91.4180783 h -0.37314"
       id="path2354" /><path
       style="opacity:0.312236;fill:#000000;stroke-width:0.264583"
       d="m -213.43323,29.850802 30.59707,142.537568"
       id="path4534" /><text
       xml:space="preserve"
       style="font-size:3.175px;opacity:1;fill:none;stroke:#000000;stroke-width:3;stroke-dasharray:none;stroke-opacity:1"
       x="-257.46317"
       y="768.28503"
       id="text8964"><tspan
         id="tspan8962"
         style="stroke-width:3"
         sodipodi:role="line" /></text><text
       xml:space="preserve"
       transform="scale(0.26458333)"
       id="text9022"
       style="fill:none;opacity:1;stroke:#000000;stroke-opacity:1;stroke-width:11.33858268;stroke-dasharray:none;white-space:pre;shape-inside:url(#rect9024)" /><text
       xml:space="preserve"
       transform="scale(0.26458333)"
       id="text9034"
       style="fill:none;opacity:1;stroke:#000000;stroke-opacity:1;stroke-width:11.33858268;stroke-dasharray:none;white-space:pre;shape-inside:url(#rect9036)" /><text
       xml:space="preserve"
       transform="scale(0.26458333)"
       id="text9040"
       style="fill:none;opacity:1;stroke:#000000;stroke-opacity:1;stroke-width:11.33858268;stroke-dasharray:none;white-space:pre;shape-inside:url(#rect9042)" /><path
       style="opacity:1;fill:#90d1ff;fill-opacity:1;stroke:#030303;stroke-width:0.122;stroke-dasharray:none;stroke-opacity:1"
       d="m 117.99848,92.649642 -0.0501,16.374198 c 5.15082,2.08849 7.14315,4.47631 8.91211,7.38663 1.75126,2.88118 2.68023,10.09408 2.73059,12.81988 0.14368,7.77741 -0.0602,20.23062 0,34.262 0.0641,14.95234 -0.0129,28.37966 -0.0129,28.37966 l 14.70608,-0.015 v -64.86115 c 0,0 -0.13503,-2.8769 -0.46354,-6.82853 -0.30883,-3.71485 -1.68509,-7.87059 -2.74505,-10.47843 -3.5512,-8.73709 -8.95704,-12.186473 -11.38225,-13.533539 -4.3141,-2.663549 -7.3232,-3.259144 -11.6949,-3.505729 z"
       id="path3923" /><path
       style="opacity:1;fill:#ffffff;fill-opacity:1;stroke:#030303;stroke-width:0.122;stroke-dasharray:none;stroke-opacity:1"
       d="m 109.14373,92.572127 c -3.58994,0.02867 -8.97048,0.258502 -12.138798,1.280542 -4.681026,1.510012 -6.597935,2.544249 -9.758578,5.058606 -1.471436,1.170555 -2.90133,2.300485 -4.408,4.023015 -1.306496,1.49366 -2.77244,3.25044 -2.77244,3.25044 0,0 -1.521531,-4.66133 -6.526733,-5.00486 -4.686181,-0.32164 -9.952365,-0.39171 -9.952365,-0.39171 l 0.264067,15.73703 c 0,0 4.103453,-0.0494 5.597591,0.61546 1.915289,0.85234 2.690305,2.9554 2.813782,4.18218 0.1892,1.87972 0.324011,17.47387 0.324011,17.47387 v 53.0996 l 0.593762,0.0171 h 13.817762 v -60.88 c 0,0 0.214332,-6.15253 2.021065,-10.40454 0.670734,-1.57852 2.649432,-5.72939 5.041553,-7.71012 1.930726,-1.59868 3.076001,-2.40787 7.225911,-3.48971 3.66871,-0.9564 11.54814,-0.92966 11.54814,-0.92966 l -0.0274,-15.888952 c 0,0 -1.50938,-0.05544 -3.66334,-0.03824 z"
       id="path896" /></g></svg>
